<?xml version="1.0" encoding="utf-8"?>
<!-- Generator: Adobe Illustrator 24.0.2, SVG Export Plug-In . SVG Version: 6.00 Build 0)  -->
<svg version="1.1" id="Capa_1" xmlns="http://www.w3.org/2000/svg" xmlns:xlink="http://www.w3.org/1999/xlink" x="0px" y="0px"
	 viewBox="0 0 80.4 160.1" style="enable-background:new 0 0 80.4 160.1;" xml:space="preserve">
<style type="text/css">
	.st0{fill:#487CBA;}
	.st1{fill:#050505;}
	.st2{fill:none;stroke:#000000;stroke-width:3;stroke-miterlimit:10;}
</style>
<title>Recurso 1</title>
<g id="Capa_2_1_">
	<g id="Capa_1-2">
		<path class="st0" d="M80.4,0H6.8C3.1,0,0,3.1,0,6.8c0,0,0,0,0,0v146.5c0,3.8,3.1,6.8,6.8,6.8c0,0,0,0,0,0h73.6"/>
		<path class="st1" d="M16,142.6c-0.7,0-1.2-0.6-1.2-1.2c0,0,0-0.1,0-0.1c0.1-0.7,0.7-1.2,1.3-1.1c0.7,0.1,1.2,0.7,1.1,1.3
			C17.2,142.1,16.6,142.6,16,142.6z M26.1,142.8L26.1,142.8c-0.4,0-0.5-0.6-1.1-0.6h-4.2c-0.7,0-0.8,0.6-1.1,0.6l0,0
			c-0.1,0-0.2-0.1-0.3-0.3l-0.8-1.6c-0.2-0.4,0-0.6,0.3-0.6H25c0.6,0,0.7-0.7,1-0.7h0c0.1,0,0.2,0.1,0.2,0.4v2.4
			C26.3,142.6,26.2,142.8,26.1,142.8L26.1,142.8z"/>
		<path class="st1" d="M23.8,138.1h-4.5v0.9c0,0.1-0.1,0.3-0.3,0.3c0,0,0,0,0,0h-0.2c-0.1,0-0.3-0.1-0.3-0.2c0,0,0,0,0,0v-0.5
			c0-0.8-0.6-1.3-1.6-1.5c-0.2,0-0.4-0.2-0.4-0.3v-0.2c0-0.2,0.1-0.3,0.4-0.3h1.6v-2c0-0.2,0.1-0.3,0.3-0.3c0,0,0,0,0,0H19
			c0.2,0,0.3,0.1,0.3,0.3c0,0,0,0,0,0v2h4.5c0.8,0,1.2-0.4,1.2-0.9c0.1-0.5-0.3-1-0.8-1.1c-0.3-0.1-0.2-0.5,0.1-0.5
			c1.2,0,2.2,1,2.2,2.2c0,0,0,0.1,0,0.1C26.4,137.2,25.6,138.1,23.8,138.1z"/>
		<path class="st1" d="M18.5,132.6c-0.4-0.5-0.9-0.8-1.4-0.9c-0.2,0-0.3,0-0.3,0.2c0,0.5-0.5,0.9-1.1,0.9c-0.6,0.1-1.2-0.4-1.3-1.1
			c0,0,0-0.1,0-0.1c0-0.7,0.6-1.3,1.3-1.3c0,0,0.1,0,0.1,0c1.3,0.1,2.5,0.8,3.1,1.9C19,132.5,18.7,132.8,18.5,132.6z"/>
		<path class="st1" d="M24.6,130.5c-0.4,0-0.7-0.3-0.7-0.7c0,0,0-0.1,0-0.1c0-1.2,2-0.7,2-2.6c0-0.9-0.4-1.5-1.2-1.5
			c-2.2,0-0.8,4.7-4,4.7c-1.3,0-2.3-1.3-2.3-3.2c0-2,1-3.2,1.9-3.2c0.4,0,0.7,0.3,0.7,0.7c0,0,0,0,0,0c0,1.1-2,0.7-2,2.4
			c0,0.7,0.5,1.3,1.2,1.4c0,0,0,0,0.1,0c2.2,0,0.8-4.7,4-4.7c1.3,0,2.2,1.3,2.2,3.4S25.5,130.5,24.6,130.5z"/>
		<path class="st1" d="M23.8,118.8h-4.5v0.9c0,0.1-0.1,0.3-0.3,0.3c0,0,0,0,0,0h-0.2c-0.2,0-0.3-0.1-0.3-0.3v-0.5
			c0-0.8-0.6-1.3-1.6-1.5c-0.2,0-0.4-0.2-0.4-0.3v-0.2c0-0.2,0.1-0.3,0.4-0.3h1.6v-2c0-0.2,0.1-0.3,0.3-0.3c0,0,0,0,0,0H19
			c0.2,0,0.3,0.1,0.3,0.3c0,0,0,0,0,0v2h4.5c0.8,0,1.2-0.4,1.2-0.9c0.1-0.5-0.3-1-0.8-1.2c-0.3-0.1-0.2-0.5,0.1-0.5
			c1.2,0,2.2,1,2.2,2.2c0,0,0,0.1,0,0.1C26.4,117.9,25.6,118.8,23.8,118.8z"/>
		<path class="st1" d="M26,105.3L26,105.3c0.2,0,0.3,0.1,0.3,0.3v2.4c0,0.2-0.1,0.3-0.2,0.3H26c-0.4,0-0.4-0.6-1.1-0.6l-3.2,0.2
			c-1.8,0.1-2.6,0.7-2.6,1.7c0,1,0.9,1.7,1.8,1.7c0.1,0,0.1,0,0.2,0H25c0.6,0,0.7-0.7,1-0.7h0c0.1,0,0.2,0.2,0.2,0.4v2.5
			c0,0.2-0.1,0.3-0.2,0.3l0,0c-0.4,0-0.4-0.6-1-0.6h-8.6c-0.7,0-0.7,0.7-1.1,0.7h-0.1c-0.2,0-0.3-0.1-0.3-0.3l-0.8-1.7
			c-0.1-0.3,0-0.5,0.2-0.5h5c-0.7-0.5-1.1-1.4-1.1-2.3c0-1.5,1-2.9,3.4-3.1l3.1-0.2C25.6,105.9,25.6,105.3,26,105.3z"/>
		<path class="st1" d="M24.1,97.7c1.5,0.4,2.5,1.8,2.4,3.3c0,2.1-1.6,3.8-3.7,3.8c-0.1,0-0.2,0-0.4,0c-2.1,0.1-3.9-1.6-4-3.7
			c0-0.1,0-0.1,0-0.2c0-2.1,1.2-3,2.4-3c0.5,0,1,0.3,1.1,0.8l1.4,3.9c1.1-0.3,1.8-1.3,1.8-2.4c0-0.9-0.4-1.7-1.2-2.1
			C23.7,98,23.8,97.7,24.1,97.7z M21.6,102.9c0.3,0,0.7,0,1-0.1l-1.2-2.7c-0.1-0.3-0.4-0.4-0.7-0.4c-0.7,0-1.8,0.6-1.8,1.5
			S20.1,102.9,21.6,102.9z"/>
		<path class="st1" d="M22.3,85.3c2.1-0.2,4,1.5,4.2,3.6c0,0,0,0.1,0,0.1c0,0.9-0.3,1.7-1,2.3H26c0.2,0,0.3,0.1,0.3,0.3v1.7
			c0,0.2-0.1,0.3-0.2,0.3l0,0c-0.3,0-0.4-0.6-1.1-0.6h-8.6c-0.7,0-0.7,0.7-1.1,0.7l0,0c-0.1,0-0.2-0.1-0.3-0.3l-0.8-1.7
			c-0.2-0.3-0.1-0.6,0.3-0.6h4.8c-0.6-0.6-0.9-1.3-0.9-2.1c0-2.1,1.6-3.7,3.7-3.8C22.2,85.3,22.2,85.3,22.3,85.3z M22.9,87.2
			c-2.3,0-3.9,0.9-3.9,2.3c0,1,0.8,1.7,1.8,1.7c0,0,0,0,0,0h2.7c1.1,0,2.1-0.8,2.3-1.9C25.8,88,24.8,87.2,22.9,87.2z"/>
		<path class="st1" d="M24.1,77.4c1.5,0.4,2.5,1.8,2.4,3.3c0,2.1-1.7,3.8-3.7,3.8c-0.1,0-0.2,0-0.4,0c-2.1,0.1-3.9-1.6-4-3.7
			c0-0.1,0-0.1,0-0.2c0-2.1,1.2-3,2.4-3c0.5,0,1,0.3,1.1,0.8l1.4,3.9c1.1-0.3,1.8-1.3,1.8-2.4c0-0.9-0.4-1.7-1.2-2.1
			C23.7,77.7,23.8,77.3,24.1,77.4z M21.6,82.6c0.3,0,0.7,0,1-0.1l-1.2-2.7c-0.1-0.3-0.4-0.4-0.7-0.4C20.1,79.4,19,80,19,81
			S20.1,82.6,21.6,82.6z"/>
		<path class="st1" d="M23.8,76h-4.5v0.9c0,0.1-0.1,0.3-0.3,0.3c0,0,0,0,0,0h-0.2c-0.1,0-0.3-0.1-0.3-0.2c0,0,0,0,0,0v-0.5
			c0-0.8-0.6-1.3-1.6-1.5c-0.2,0-0.4-0.2-0.4-0.3v-0.2c0-0.2,0.1-0.3,0.4-0.3h1.6V72c0-0.2,0.1-0.3,0.3-0.3c0,0,0,0,0,0H19
			c0.2,0,0.3,0.1,0.3,0.3c0,0,0,0,0,0v2h4.5c0.8,0,1.2-0.4,1.2-0.9c0-0.5-0.3-1-0.8-1.1c-0.3-0.1-0.2-0.5,0.1-0.5
			c1.2,0,2.2,1,2.2,2.2c0,0,0,0.1,0,0.1C26.4,75.1,25.6,76,23.8,76z"/>
		<path class="st1" d="M23.8,69.9h-4.5v0.9c0,0.1-0.1,0.3-0.3,0.3c0,0,0,0,0,0h-0.2c-0.2,0-0.3-0.1-0.3-0.3v-0.5
			c0-0.8-0.6-1.3-1.6-1.5c-0.2,0-0.4-0.2-0.4-0.3v-0.2c0-0.2,0.1-0.3,0.4-0.3h1.6v-2c0-0.2,0.1-0.3,0.3-0.3c0,0,0,0,0,0H19
			c0.2,0,0.3,0.1,0.3,0.3c0,0,0,0,0,0v2h4.5c0.8,0,1.2-0.4,1.2-0.9c0.1-0.5-0.3-1-0.8-1.2c-0.3-0.1-0.2-0.5,0.1-0.5
			c1.2,0,2.2,1,2.2,2.2c0,0,0,0.1,0,0.1C26.4,69,25.6,69.9,23.8,69.9z"/>
		<path class="st1" d="M24.1,57.8c1.5,0.4,2.5,1.8,2.4,3.3c0,2.1-1.7,3.8-3.7,3.8c-0.1,0-0.2,0-0.4,0c-2.1,0.1-3.9-1.6-4-3.7
			c0-0.1,0-0.1,0-0.2c0-2.1,1.2-3,2.4-3c0.5,0,1,0.3,1.1,0.8l1.4,3.9c1.1-0.3,1.8-1.3,1.8-2.4c0-0.9-0.4-1.7-1.2-2.1
			C23.7,58.1,23.8,57.8,24.1,57.8z M21.6,63c0.3,0,0.7,0,1-0.1l-1.2-2.7c-0.1-0.3-0.4-0.4-0.7-0.4c-0.7,0-1.8,0.6-1.8,1.5
			S20.1,63,21.6,63z"/>
		<path class="st1" d="M19.7,51.1c0.5,0,1,0.2,1,0.8c0,1-1.3,0.6-1.3,1.5c0,0.8,1,1.1,2,1.1h3.5c0.6,0,0.7-0.7,1-0.7H26
			c0.1,0,0.2,0.1,0.2,0.3v2.5c0,0.2-0.1,0.3-0.2,0.3h0c-0.4,0-0.4-0.6-1-0.6h-4.4c-0.7,0-0.7,0.7-1,0.7h-0.1c-0.1,0-0.2-0.1-0.3-0.3
			l-0.7-1.6c-0.2-0.3,0-0.5,0.3-0.5H20c-1-0.3-1.6-1.2-1.6-2.2c-0.1-0.7,0.5-1.4,1.2-1.5C19.7,51.1,19.7,51.1,19.7,51.1z"/>
		<path class="st1" d="M24.6,47.5c-0.4,0-0.7-0.3-0.7-0.7c0,0,0-0.1,0-0.1c0-1.2,2-0.7,2-2.6c0-0.8-0.4-1.5-1.2-1.5
			c-2.2,0-0.8,4.7-4,4.7c-1.3,0-2.3-1.3-2.3-3.2c0-2,1-3.2,1.9-3.2c0.4,0,0.7,0.3,0.7,0.7c0,0,0,0,0,0c0,1.1-2,0.7-2,2.4
			c0,0.7,0.5,1.3,1.2,1.4c0,0,0,0,0.1,0c2.2,0,0.8-4.7,4-4.7c1.3,0,2.2,1.3,2.2,3.4S25.5,47.5,24.6,47.5z"/>
		<path class="st1" d="M16,39.7c-0.7,0-1.2-0.6-1.2-1.2c0,0,0-0.1,0-0.1c0.1-0.7,0.7-1.2,1.3-1.1c0.7,0.1,1.2,0.7,1.1,1.3
			C17.2,39.2,16.6,39.7,16,39.7z M26,39.9L26,39.9c-0.4,0-0.4-0.6-1-0.6h-4.2c-0.7,0-0.8,0.6-1.1,0.6l0,0c-0.1,0-0.2-0.1-0.3-0.3
			L18.4,38c-0.2-0.4,0-0.6,0.3-0.6h6.2c0.6,0,0.7-0.7,1-0.7h0c0.1,0,0.2,0.1,0.2,0.3v2.5C26.3,39.8,26.2,39.9,26,39.9z"/>
		<path class="st1" d="M26,27.7L26,27.7c0.1,0,0.2,0.1,0.2,0.3v1.7c0,0.2-0.1,0.3-0.2,0.4l-0.6,0c0.7,0.6,1,1.4,1,2.3
			c-0.1,2.1-1.8,3.8-3.9,3.7c0,0-0.1,0-0.1,0c-2.1,0.1-3.9-1.5-4-3.6c0-0.1,0-0.1,0-0.2c0-0.8,0.3-1.5,0.8-2.1h-3
			c-0.7,0-0.7,0.8-1.1,0.8l0,0c-0.1,0-0.3-0.1-0.3-0.3l-0.5-1.7c-0.1-0.4,0-0.6,0.3-0.6h10.4C25.6,28.3,25.7,27.7,26,27.7z
			 M23.7,30.1h-2.6c-1.1,0-2.1,0.9-2.2,2c0,1.2,1,2,2.7,2c2.2,0,4.1-0.9,4.1-2.4C25.8,30.8,24.9,30,23.7,30.1
			C23.8,30.1,23.8,30.1,23.7,30.1L23.7,30.1z"/>
		<path class="st1" d="M24.1,19.9c1.5,0.4,2.5,1.8,2.4,3.3c0,2.1-1.7,3.8-3.8,3.8c-0.1,0-0.2,0-0.3,0c-2.1,0.1-3.9-1.6-4-3.7
			c0-0.1,0-0.1,0-0.2c0-2.1,1.2-3,2.4-3c0.5,0,1,0.3,1.1,0.8l1.4,3.9c1.1-0.3,1.8-1.3,1.8-2.4c0-0.9-0.4-1.7-1.2-2.1
			C23.7,20.2,23.8,19.9,24.1,19.9z M21.6,25.1c0.3,0,0.7,0,1-0.1l-1.2-2.7c-0.1-0.3-0.4-0.4-0.7-0.4c-0.7,0-1.8,0.6-1.8,1.5
			S20.1,25.1,21.6,25.1z"/>
		<line class="st2" x1="37.2" y1="78" x2="57.5" y2="78"/>
		<polygon points="47.6,90.2 45.5,88.1 56.4,78 45.5,67.9 47.6,65.7 60.8,78 		"/>
	</g>
</g>
</svg>
