<svg xmlns="http://www.w3.org/2000/svg" viewBox="0 0 80.45 160.15"><defs><style>.cls-1{fill:#547bb4;}.cls-2{fill:#050505;}.cls-3{fill:none;stroke:#000;stroke-miterlimit:10;stroke-width:3px;}</style></defs><title>Recurso 1</title><g id="Capa_2" data-name="Capa 2"><g id="Capa_1-2" data-name="Capa 1"><path class="cls-1" d="M80.45,0H6.82A6.82,6.82,0,0,0,0,6.82V153.33a6.82,6.82,0,0,0,6.82,6.82H80.45"/><path class="cls-2" d="M16,142.56a1.23,1.23,0,0,1-1.21-1.34A1.22,1.22,0,1,1,16,142.56Zm10.06.19H26c-.36,0-.42-.6-1.05-.6H20.7c-.66,0-.83.6-1.12.6h0c-.13,0-.2-.11-.3-.29l-.8-1.61c-.18-.37,0-.58.27-.58h6.22c.63,0,.69-.67,1.05-.67H26c.15,0,.24.15.24.36v2.45C26.28,142.62,26.19,142.75,26,142.75Z"/><path class="cls-2" d="M23.83,138.13h-4.5v.92a.27.27,0,0,1-.28.28h-.22a.27.27,0,0,1-.3-.28v-.5c0-.84-.63-1.34-1.56-1.47-.23,0-.36-.16-.36-.32v-.24c0-.21.13-.31.36-.31l1.56,0v-2a.29.29,0,0,1,.3-.29h.22a.28.28,0,0,1,.28.29v2h4.52c.77,0,1.19-.38,1.19-.92a1.05,1.05,0,0,0-.84-1.14c-.26-.15-.21-.53.08-.53a2.16,2.16,0,0,1,2.16,2.27C26.44,137.23,25.57,138.13,23.83,138.13Z"/><path class="cls-2" d="M18.45,132.57a2.45,2.45,0,0,0-1.42-.91c-.16,0-.27,0-.27.16,0,.52-.47.92-1.15.92a1.17,1.17,0,0,1-1.27-1.19,1.3,1.3,0,0,1,1.45-1.26,3.7,3.7,0,0,1,3.08,1.91C19,132.47,18.7,132.81,18.45,132.57Z"/><path class="cls-2" d="M24.57,130.49a.71.71,0,0,1-.74-.8c0-1.21,2.05-.68,2.05-2.57,0-.86-.42-1.49-1.24-1.49-2.18,0-.75,4.7-4,4.7-1.31,0-2.3-1.31-2.3-3.16,0-2,1-3.23,1.92-3.23a.7.7,0,0,1,.7.74c0,1.13-2,.7-2,2.39a1.28,1.28,0,0,0,1.25,1.36c2.19,0,.79-4.7,4-4.7,1.26,0,2.25,1.31,2.25,3.39S25.46,130.49,24.57,130.49Z"/><path class="cls-2" d="M23.83,118.84h-4.5v.92a.27.27,0,0,1-.28.27h-.22c-.18,0-.3-.09-.3-.27v-.5c0-.84-.63-1.34-1.56-1.47-.23,0-.36-.16-.36-.32v-.25c0-.21.13-.3.36-.3l1.56,0v-2a.29.29,0,0,1,.3-.29h.22a.28.28,0,0,1,.28.29v2h4.52c.77,0,1.19-.39,1.19-.92a1.07,1.07,0,0,0-.84-1.15c-.26-.14-.21-.53.08-.53a2.17,2.17,0,0,1,2.16,2.28C26.44,117.93,25.57,118.84,23.83,118.84Z"/><path class="cls-2" d="M26,105.35h.07c.14,0,.22.13.22.34v2.38c0,.21-.08.34-.22.34H26c-.37,0-.43-.62-1.06-.59l-3.2.17c-1.76.08-2.58.71-2.58,1.69a1.78,1.78,0,0,0,2,1.7h3.79c.63,0,.68-.67,1-.67H26c.15,0,.24.15.24.36v2.5c0,.21-.09.34-.24.34H26c-.37,0-.42-.64-1-.64H16.37c-.68,0-.73.67-1.05.67h-.05a.38.38,0,0,1-.34-.27l-.75-1.73c-.15-.32,0-.52.25-.52l5,0a2.71,2.71,0,0,1-1.08-2.26c0-1.52,1-2.91,3.41-3.05l3.13-.19C25.56,105.89,25.62,105.35,26,105.35Z"/><path class="cls-2" d="M24.07,97.71A3.16,3.16,0,0,1,26.44,101a3.79,3.79,0,0,1-4.1,3.83,3.85,3.85,0,0,1-4-3.86c0-2.08,1.25-3,2.38-3a1.11,1.11,0,0,1,1.13.82l1.43,3.91a2.46,2.46,0,0,0,1.78-2.37,2.23,2.23,0,0,0-1.18-2.07C23.68,98,23.75,97.67,24.07,97.71Zm-2.45,5.23a5.54,5.54,0,0,0,1-.1l-1.16-2.68a.68.68,0,0,0-.68-.42c-.66,0-1.82.6-1.82,1.53S20.07,102.94,21.62,102.94Z"/><path class="cls-2" d="M22.28,85.34a3.88,3.88,0,0,1,4.16,3.73,2.9,2.9,0,0,1-1,2.29l.58,0c.21,0,.31.12.31.33l0,1.74c0,.18-.08.29-.22.29h0c-.34,0-.44-.61-1.08-.61H16.45c-.69,0-.74.69-1.1.69h0c-.15,0-.21-.08-.33-.32l-.79-1.66c-.16-.34-.06-.59.28-.59h4.76a2.81,2.81,0,0,1-.86-2.13A3.73,3.73,0,0,1,22.28,85.34Zm.6,1.9c-2.31,0-3.89.92-3.89,2.31a1.73,1.73,0,0,0,1.82,1.66h2.73a2.24,2.24,0,0,0,2.29-1.92C25.83,88,24.77,87.24,22.88,87.24Z"/><path class="cls-2" d="M24.07,77.38a3.18,3.18,0,0,1,2.37,3.28,3.79,3.79,0,0,1-4.1,3.82,3.84,3.84,0,0,1-4-3.85c0-2.09,1.25-3,2.38-3a1.11,1.11,0,0,1,1.13.82l1.43,3.91A2.47,2.47,0,0,0,25.09,80a2.23,2.23,0,0,0-1.18-2.06C23.68,77.72,23.75,77.35,24.07,77.38Zm-2.45,5.23a4.8,4.8,0,0,0,1-.1l-1.16-2.68a.68.68,0,0,0-.68-.42C20.15,79.41,19,80,19,81S20.07,82.61,21.62,82.61Z"/><path class="cls-2" d="M23.83,76h-4.5v.92a.27.27,0,0,1-.28.27h-.22a.27.27,0,0,1-.3-.27v-.51c0-.83-.63-1.33-1.56-1.46-.23,0-.36-.17-.36-.33v-.24c0-.21.13-.31.36-.31h1.56V72a.29.29,0,0,1,.3-.29h.22a.28.28,0,0,1,.28.29v2h4.52c.77,0,1.19-.39,1.19-.92A1.07,1.07,0,0,0,24.2,72c-.26-.14-.21-.53.08-.53a2.17,2.17,0,0,1,2.16,2.28C26.44,75.05,25.57,76,23.83,76Z"/><path class="cls-2" d="M23.83,69.93h-4.5v.92a.27.27,0,0,1-.28.27h-.22c-.18,0-.3-.09-.3-.27v-.5c0-.84-.63-1.34-1.56-1.47-.23,0-.36-.16-.36-.32v-.25c0-.21.13-.3.36-.3l1.56,0V66a.29.29,0,0,1,.3-.29h.22a.28.28,0,0,1,.28.29v2h4.52c.77,0,1.19-.39,1.19-.92a1.07,1.07,0,0,0-.84-1.15c-.26-.14-.21-.53.08-.53a2.17,2.17,0,0,1,2.16,2.28C26.44,69,25.57,69.93,23.83,69.93Z"/><path class="cls-2" d="M24.07,57.8a3.18,3.18,0,0,1,2.37,3.28,3.79,3.79,0,0,1-4.1,3.82,3.84,3.84,0,0,1-4-3.85c0-2.09,1.25-3,2.38-3a1.11,1.11,0,0,1,1.13.82l1.43,3.91a2.47,2.47,0,0,0,1.78-2.38,2.23,2.23,0,0,0-1.18-2.06C23.68,58.14,23.75,57.77,24.07,57.8ZM21.62,63a5.56,5.56,0,0,0,1-.09l-1.16-2.68a.67.67,0,0,0-.68-.42c-.66,0-1.82.59-1.82,1.53S20.07,63,21.62,63Z"/><path class="cls-2" d="M19.73,51.14c.55,0,1,.22,1,.84,0,1.05-1.26.56-1.26,1.5,0,.76,1,1.11,2,1.11h3.45c.63,0,.7-.74,1-.74h.07c.14,0,.22.13.22.34v2.5c0,.21-.08.34-.22.34H26c-.35,0-.42-.61-1-.61H20.6c-.66,0-.69.69-1.05.69H19.5c-.13,0-.24-.11-.34-.29l-.72-1.58c-.16-.34,0-.47.27-.47H20a2.17,2.17,0,0,1-1.6-2.15A1.35,1.35,0,0,1,19.73,51.14Z"/><path class="cls-2" d="M24.57,47.51a.71.71,0,0,1-.74-.81c0-1.21,2.05-.68,2.05-2.57,0-.85-.42-1.48-1.24-1.48-2.18,0-.75,4.69-4,4.69-1.31,0-2.3-1.3-2.3-3.16,0-2,1-3.23,1.92-3.23a.7.7,0,0,1,.7.74c0,1.13-2,.7-2,2.39a1.28,1.28,0,0,0,1.25,1.36c2.19,0,.79-4.7,4-4.7,1.26,0,2.25,1.31,2.25,3.39S25.46,47.51,24.57,47.51Z"/><path class="cls-2" d="M16,39.69a1.23,1.23,0,0,1-1.21-1.34A1.22,1.22,0,1,1,16,39.69ZM26,39.88H26c-.36,0-.42-.59-1.05-.59H20.7c-.66,0-.83.59-1.12.59h0c-.13,0-.2-.11-.3-.29L18.44,38c-.18-.37,0-.58.27-.58h6.22c.63,0,.69-.66,1.05-.66H26c.15,0,.24.14.24.35v2.46C26.28,39.76,26.19,39.88,26,39.88Z"/><path class="cls-2" d="M26,27.69h0c.14,0,.22.09.22.27v1.68A.31.31,0,0,1,26,30l-.57.05a2.82,2.82,0,0,1,1,2.26A3.8,3.8,0,0,1,22.39,36a3.81,3.81,0,0,1-4-3.79,3,3,0,0,1,.83-2.12h-3c-.71,0-.73.75-1.08.75h0c-.15,0-.26-.12-.33-.29l-.54-1.72c-.13-.38,0-.56.29-.56H24.94C25.57,28.3,25.67,27.69,26,27.69Zm-2.26,2.43H21.17A2.23,2.23,0,0,0,19,32.17c0,1.2,1,2,2.74,2,2.2.05,4.07-.89,4.1-2.36A1.86,1.86,0,0,0,23.75,30.12Z"/><path class="cls-2" d="M24.07,19.89a3.18,3.18,0,0,1,2.37,3.28A3.8,3.8,0,0,1,22.34,27a3.85,3.85,0,0,1-4-3.86c0-2.08,1.25-3,2.38-3a1.11,1.11,0,0,1,1.13.82l1.43,3.91a2.46,2.46,0,0,0,1.78-2.37,2.23,2.23,0,0,0-1.18-2.07C23.68,20.23,23.75,19.86,24.07,19.89Zm-2.45,5.23a5.56,5.56,0,0,0,1-.09l-1.16-2.68a.68.68,0,0,0-.68-.42c-.66,0-1.82.59-1.82,1.53S20.07,25.12,21.62,25.12Z"/><line class="cls-3" x1="37.15" y1="77.98" x2="57.51" y2="77.98"/><polygon points="47.57 90.25 45.53 88.05 56.36 77.98 45.53 67.91 47.57 65.71 60.77 77.98 47.57 90.25"/></g></g></svg>