{
 "asset" : {
  "generator" : "Generated by Pixyz Studio 2020.2 Update 1",
  "version" : "2.0"},
 "nodes" : [
  {
   "name" : "geoCartonCap",
   "matrix" : [
    1,
    0,
    0,
    0,
    0,
    1,
    0,
    0,
    0,
    0,
    1,
    0,
    4.656672,
    50.713027,
    -0.066148,
    1],
   "mesh" : 0},
  {
   "name" : "geoMilkCarton",
   "matrix" : [
    1,
    0,
    0,
    0,
    0,
    1,
    0,
    0,
    0,
    0,
    1,
    0,
    -0,
    23.711448,
    0,
    1],
   "mesh" : 1},
  {
   "name" : "geoMilkCarton",
   "children" : [
    0,
    1]},
  {
   "name" : "OatSideCarton",
   "matrix" : [
    10,
    0,
    0,
    0,
    0,
    10,
    0,
    0,
    0,
    0,
    10,
    0,
    0,
    0,
    0,
    1],
   "children" : [
    2]},
  {
   "name" : "Root",
   "matrix" : [
    0.001,
    0,
    0,
    0,
    0,
    0.001,
    0,
    0,
    0,
    0,
    0.001,
    0,
    0,
    0,
    0,
    1],
   "children" : [
    3]}],
 "scenes" : [
  {
   "name" : "Root",
   "nodes" : [
    4]}],
 "scene" : 0,
 "buffers" : [
  {
   "byteLength" : 147032,
   "uri" : "OatSideCarton.bin"}],
 "bufferViews" : [
  {
   "buffer" : 0,
   "byteOffset" : 0,
   "byteLength" : 33432,
   "target" : 34963},
  {
   "buffer" : 0,
   "byteOffset" : 33432,
   "byteLength" : 85200,
   "byteStride" : 12,
   "target" : 34962},
  {
   "buffer" : 0,
   "byteOffset" : 118632,
   "byteLength" : 28400,
   "byteStride" : 8,
   "target" : 34962}],
 "accessors" : [
  {
   "bufferView" : 0,
   "count" : 8352,
   "componentType" : 5123,
   "type" : "SCALAR",
   "byteOffset" : 0,
   "min" : [
    0],
   "max" : [
    1505]},
  {
   "bufferView" : 0,
   "count" : 8364,
   "componentType" : 5123,
   "type" : "SCALAR",
   "byteOffset" : 16704,
   "min" : [
    0],
   "max" : [
    2043]},
  {
   "bufferView" : 1,
   "count" : 1506,
   "componentType" : 5126,
   "type" : "VEC3",
   "byteOffset" : 0,
   "min" : [
    -3.276755,
    -3.164313,
    -3.276813],
   "max" : [
    3.276755,
    -0.107711,
    3.276814]},
  {
   "bufferView" : 1,
   "count" : 1506,
   "componentType" : 5126,
   "type" : "VEC3",
   "byteOffset" : 18072,
   "min" : [
    -1,
    -0.999998,
    -1],
   "max" : [
    0.999999,
    0.999999,
    1]},
  {
   "bufferView" : 1,
   "count" : 2044,
   "componentType" : 5126,
   "type" : "VEC3",
   "byteOffset" : 36144,
   "min" : [
    -8.500896,
    -23.71159,
    -9.164627],
   "max" : [
    8.500896,
    24.009048,
    9.164627]},
  {
   "bufferView" : 1,
   "count" : 2044,
   "componentType" : 5126,
   "type" : "VEC3",
   "byteOffset" : 60672,
   "min" : [
    -1,
    -1,
    -1],
   "max" : [
    1,
    0.999997,
    1]},
  {
   "bufferView" : 2,
   "count" : 1506,
   "componentType" : 5126,
   "type" : "VEC2",
   "byteOffset" : 0,
   "min" : [
    0.09461,
    0.003529],
   "max" : [
    0.997238,
    0.998025]},
  {
   "bufferView" : 2,
   "count" : 2044,
   "componentType" : 5126,
   "type" : "VEC2",
   "byteOffset" : 12048,
   "min" : [
    0.001953,
    0.002546],
   "max" : [
    1.001076,
    0.998047]}],
 "meshes" : [
  {
   "primitives" : [
    {
     "mode" : 4,
     "material" : 0,
     "indices" : 0,
     "attributes" : {
      "POSITION" : 2,
      "NORMAL" : 3,
      "TEXCOORD_0" : 6}}]},
  {
   "primitives" : [
    {
     "mode" : 4,
     "material" : 0,
     "indices" : 1,
     "attributes" : {
      "POSITION" : 4,
      "NORMAL" : 5,
      "TEXCOORD_0" : 7}}]}],
 "materials" : [
  {
   "name" : "RSMilkCarton",
   "pbrMetallicRoughness" : {
    "baseColorTexture" : {
     "index" : 1,
     "texCoord" : 0},
    "metallicFactor" : 0,
    "metallicRoughnessTexture" : {
     "index" : 0,
     "texCoord" : 0}},
   "normalTexture" : {
    "index" : 2,
    "texCoord" : 0}}],
 "samplers" : [
  {
}],
 "textures" : [
  {
   "source" : 0,
   "sampler" : 0},
  {
   "source" : 1,
   "sampler" : 0},
  {
   "source" : 2,
   "sampler" : 0}],
 "images" : [
  {
   "uri" : "Textures/RSMilkCartonMetallicRoughness.png"},
  {
   "uri" : "Textures/MilkCarton_RSMilkCarton_Color.png"},
  {
   "uri" : "Textures/MilkCarton_RSMilkCarton_Normal.png"}]}