{
 "asset" : {
  "generator" : "Generated by Pixyz Studio 2020.2 Update 1",
  "version" : "2.0"},
 "nodes" : [
  {
   "name" : "MilkCarton_Wip007:geoCartonCap_low",
   "matrix" : [
    1,
    -0,
    0,
    0,
    0,
    1,
    0,
    0,
    0,
    0,
    1,
    0,
    1.853046,
    68.803106,
    -0.002751,
    1],
   "mesh" : 0},
  {
   "name" : "MilkCarton_Wip007:geoMilkCarton_low",
   "matrix" : [
    1,
    -0,
    0,
    0,
    0,
    1,
    0,
    0,
    0,
    0,
    1,
    0,
    -0.005508,
    58.026335,
    0.02365,
    1],
   "mesh" : 1},
  {
   "name" : "geoMilkCarton",
   "matrix" : [
    0.118961,
    0,
    -0,
    0,
    0,
    0.118961,
    -0,
    0,
    0,
    0,
    0.118961,
    0,
    -0.076892,
    -7.005991,
    0.011718,
    1],
   "children" : [
    0,
    1]},
  {
   "name" : "Parent",
   "matrix" : [
    19.973039,
    0.543943,
    -6.662106,
    0,
    -3.599418,
    18.563755,
    -9.275398,
    0,
    5.632381,
    9.934432,
    17.697038,
    0,
    -2.62564,
    63.812111,
    -0.051822,
    1],
   "children" : [
    2]},
  {
   "name" : "OatsideCarton_Animated.fbx",
   "matrix" : [
    10,
    0,
    0,
    0,
    0,
    10,
    0,
    0,
    0,
    0,
    10,
    0,
    0,
    0,
    0,
    1],
   "children" : [
    3]},
  {
   "name" : "Root",
   "matrix" : [
    0.001,
    0,
    0,
    0,
    0,
    0.001,
    0,
    0,
    0,
    0,
    0.001,
    0,
    0,
    0,
    0,
    1],
   "children" : [
    4]}],
 "scenes" : [
  {
   "name" : "Root",
   "nodes" : [
    5]}],
 "scene" : 0,
 "buffers" : [
  {
   "byteLength" : 163212,
   "uri" : "OatsideCarton_Animated.bin"}],
 "bufferViews" : [
  {
   "buffer" : 0,
   "byteOffset" : 0,
   "byteLength" : 33432,
   "target" : 34963},
  {
   "buffer" : 0,
   "byteOffset" : 33432,
   "byteLength" : 85200,
   "byteStride" : 12,
   "target" : 34962},
  {
   "buffer" : 0,
   "byteOffset" : 118632,
   "byteLength" : 28400,
   "byteStride" : 8,
   "target" : 34962},
  {
   "buffer" : 0,
   "byteOffset" : 150276,
   "byteLength" : 120},
  {
   "buffer" : 0,
   "byteOffset" : 150396,
   "byteLength" : 12816},
  {
   "buffer" : 0,
   "byteOffset" : 147032,
   "byteLength" : 3244}],
 "accessors" : [
  {
   "bufferView" : 0,
   "count" : 8352,
   "componentType" : 5123,
   "type" : "SCALAR",
   "byteOffset" : 0,
   "min" : [
    0],
   "max" : [
    1505]},
  {
   "bufferView" : 0,
   "count" : 8364,
   "componentType" : 5123,
   "type" : "SCALAR",
   "byteOffset" : 16704,
   "min" : [
    0],
   "max" : [
    2043]},
  {
   "bufferView" : 1,
   "count" : 1506,
   "componentType" : 5126,
   "type" : "VEC3",
   "byteOffset" : 0,
   "min" : [
    -1.307806,
    -1.26293,
    -1.30783],
   "max" : [
    1.307806,
    -0.04299,
    1.30783]},
  {
   "bufferView" : 1,
   "count" : 1506,
   "componentType" : 5126,
   "type" : "VEC3",
   "byteOffset" : 18072,
   "min" : [
    -1,
    -0.999998,
    -1],
   "max" : [
    0.999999,
    0.999999,
    1]},
  {
   "bufferView" : 1,
   "count" : 2044,
   "componentType" : 5126,
   "type" : "VEC3",
   "byteOffset" : 36144,
   "min" : [
    -3.392846,
    -9.463682,
    -3.657752],
   "max" : [
    3.392846,
    9.582402,
    3.657752]},
  {
   "bufferView" : 1,
   "count" : 2044,
   "componentType" : 5126,
   "type" : "VEC3",
   "byteOffset" : 60672,
   "min" : [
    -1,
    -1,
    -1],
   "max" : [
    1,
    0.999997,
    1]},
  {
   "bufferView" : 2,
   "count" : 1506,
   "componentType" : 5126,
   "type" : "VEC2",
   "byteOffset" : 0,
   "min" : [
    0.09461,
    0.003529],
   "max" : [
    0.997238,
    0.998025]},
  {
   "bufferView" : 2,
   "count" : 2044,
   "componentType" : 5126,
   "type" : "VEC2",
   "byteOffset" : 12048,
   "min" : [
    0.001953,
    0.002546],
   "max" : [
    1.001076,
    0.998047]},
  {
   "bufferView" : 4,
   "count" : 801,
   "componentType" : 5126,
   "type" : "VEC4",
   "byteOffset" : 0,
   "min" : [
    0.005048,
    -0.003548,
    0.171945,
    0.985087],
   "max" : [
    0.005048,
    -0.003548,
    0.171945,
    0.985087]},
  {
   "bufferView" : 3,
   "count" : 5,
   "componentType" : 5126,
   "type" : "VEC3",
   "byteOffset" : 0,
   "min" : [
    -2.62564,
    63.812111,
    -0.051822],
   "max" : [
    -2.62564,
    63.812111,
    -0.051822]},
  {
   "bufferView" : 3,
   "count" : 5,
   "componentType" : 5126,
   "type" : "VEC3",
   "byteOffset" : 60,
   "min" : [
    21.061857,
    21.061857,
    21.061857],
   "max" : [
    21.061857,
    21.061857,
    21.061857]},
  {
   "bufferView" : 5,
   "count" : 5,
   "componentType" : 5126,
   "type" : "SCALAR",
   "byteOffset" : 0,
   "min" : [
    0],
   "max" : [
    8]},
  {
   "bufferView" : 5,
   "count" : 801,
   "componentType" : 5126,
   "type" : "SCALAR",
   "byteOffset" : 20,
   "min" : [
    0],
   "max" : [
    8]},
  {
   "bufferView" : 5,
   "count" : 5,
   "componentType" : 5126,
   "type" : "SCALAR",
   "byteOffset" : 3224,
   "min" : [
    0],
   "max" : [
    8]}],
 "meshes" : [
  {
   "primitives" : [
    {
     "mode" : 4,
     "material" : 0,
     "indices" : 0,
     "attributes" : {
      "POSITION" : 2,
      "NORMAL" : 3,
      "TEXCOORD_0" : 6}}]},
  {
   "primitives" : [
    {
     "mode" : 4,
     "material" : 0,
     "indices" : 1,
     "attributes" : {
      "POSITION" : 4,
      "NORMAL" : 5,
      "TEXCOORD_0" : 7}}]}],
 "animations" : [
  {
   "name" : "Take 001",
   "channels" : [
    {
     "sampler" : 0,
     "target" : {
      "node" : 3,
      "path" : "translation"}},
    {
     "sampler" : 1,
     "target" : {
      "node" : 3,
      "path" : "rotation"}},
    {
     "sampler" : 2,
     "target" : {
      "node" : 3,
      "path" : "scale"}}],
   "samplers" : [
    {
     "input" : 11,
     "interpolation" : "LINEAR",
     "output" : 9},
    {
     "input" : 12,
     "interpolation" : "LINEAR",
     "output" : 8},
    {
     "input" : 13,
     "interpolation" : "LINEAR",
     "output" : 10}]}],
 "materials" : [
  {
   "name" : "RSMilkCarton",
   "pbrMetallicRoughness" : {
    "baseColorTexture" : {
     "index" : 1,
     "texCoord" : 0},
    "metallicFactor" : 0,
    "metallicRoughnessTexture" : {
     "index" : 0,
     "texCoord" : 0}},
   "normalTexture" : {
    "index" : 2,
    "texCoord" : 0}}],
 "samplers" : [
  {
}],
 "textures" : [
  {
   "source" : 0,
   "sampler" : 0},
  {
   "source" : 1,
   "sampler" : 0},
  {
   "source" : 2,
   "sampler" : 0}],
 "images" : [
  {
   "uri" : "RSMilkCartonMetallicRoughness.png"},
  {
   "uri" : "MilkCarton_RSMilkCarton_Color.png"},
  {
   "uri" : "MilkCarton_RSMilkCarton_Normal.png"}]}